# xmcd
#
# Track frame offsets:
#	150
#	9823
#	26078
#	36279
#	50821
#	67693
#	78450
#	87487
#	97044
#	108883
#	117563
#	131609
#	142066
#	150545
#	170078
#	185252
#
# Disc length: 2611 seconds
#
# Revision: 0
# Processed by: cddbd v1.5.2PL0 Copyright (c) Steve Scherf et al.
# Submitted via: dBpowerAMP V4.0
#
DISCID=d60a3110
DTITLE=Fast Food Junkies - Backwoods
DYEAR=2006
DGENRE=Bluegrass
TTITLE0=Six Feet Under
TTITLE1=Dallas
TTITLE2=Mean Old Women
TTITLE3=Grandmas Song
TTITLE4=Backwoods
TTITLE5=Bling Bling
TTITLE6=To the Pimp
TTITLE7=Fishin' Blues
TTITLE8=The Dream
TTITLE9=Melinda
TTITLE10=Them Beans
TTITLE11=Fickle Bitch
TTITLE12=74 in a 55
TTITLE13=From the Grave
TTITLE14=Gumption
TTITLE15=Bullshit
EXTD=Fast Food Junkies - Backwoods
EXTT0=
EXTT1=
EXTT2=
EXTT3=
EXTT4=
EXTT5=
EXTT6=
EXTT7=
EXTT8=
EXTT9=
EXTT10=
EXTT11=
EXTT12=
EXTT13=
EXTT14=
EXTT15=
PLAYORDER=
